<mxfile host="app.diagrams.net" agent="Mozilla/5.0 (Windows NT 10.0; Win64; x64) AppleWebKit/537.36 (KHTML, like Gecko) Chrome/141.0.0.0 Safari/537.36" version="28.2.7">
  <diagram name="Page-1" id="-gcjYlc2Hrey03qH_CiG">
    <mxGraphModel grid="1" page="1" gridSize="10" guides="1" tooltips="1" connect="1" arrows="1" fold="1" pageScale="1" pageWidth="1169" pageHeight="827" math="0" shadow="0">
      <root>
        <mxCell id="0" />
        <mxCell id="1" parent="0" />
        <mxCell id="fA92ugvTqF1jd87Zz7gU-7" value="Users" style="swimlane;fontStyle=1;align=center;verticalAlign=top;childLayout=stackLayout;horizontal=1;startSize=26;horizontalStack=0;resizeParent=1;resizeParentMax=0;resizeLast=0;collapsible=1;marginBottom=0;whiteSpace=wrap;html=1;" vertex="1" parent="1">
          <mxGeometry x="-960" y="-190" width="460" height="260" as="geometry" />
        </mxCell>
        <mxCell id="fA92ugvTqF1jd87Zz7gU-8" value="- userID : int&lt;div&gt;- name : varchar&lt;/div&gt;&lt;div&gt;- email : varchar&lt;/div&gt;&lt;div&gt;- password : varchar&lt;/div&gt;&lt;div&gt;- phone : varchar&lt;/div&gt;&lt;div&gt;- rating : decimal&lt;/div&gt;" style="text;strokeColor=none;fillColor=none;align=left;verticalAlign=top;spacingLeft=4;spacingRight=4;overflow=hidden;rotatable=0;points=[[0,0.5],[1,0.5]];portConstraint=eastwest;whiteSpace=wrap;html=1;" vertex="1" parent="fA92ugvTqF1jd87Zz7gU-7">
          <mxGeometry y="26" width="460" height="94" as="geometry" />
        </mxCell>
        <mxCell id="fA92ugvTqF1jd87Zz7gU-9" value="" style="line;strokeWidth=1;fillColor=none;align=left;verticalAlign=middle;spacingTop=-1;spacingLeft=3;spacingRight=3;rotatable=0;labelPosition=right;points=[];portConstraint=eastwest;strokeColor=inherit;" vertex="1" parent="fA92ugvTqF1jd87Zz7gU-7">
          <mxGeometry y="120" width="460" height="8" as="geometry" />
        </mxCell>
        <mxCell id="fA92ugvTqF1jd87Zz7gU-10" value="+ register(name: varchar, email: varchar, password: varchar, phone: varchar) : void&lt;div&gt;+ login(email: varchar, password: varchar) : Boolean&lt;/div&gt;&lt;div&gt;+ updateProfile(newData: Object) : void&lt;/div&gt;&lt;div&gt;+ viewRides() : Array&amp;lt;Ride&amp;gt;&lt;/div&gt;&lt;div&gt;+ rateUser(reviewee_id: int, score: int, ratingType: varchar) : void&lt;/div&gt;" style="text;strokeColor=none;fillColor=none;align=left;verticalAlign=top;spacingLeft=4;spacingRight=4;overflow=hidden;rotatable=0;points=[[0,0.5],[1,0.5]];portConstraint=eastwest;whiteSpace=wrap;html=1;" vertex="1" parent="fA92ugvTqF1jd87Zz7gU-7">
          <mxGeometry y="128" width="460" height="132" as="geometry" />
        </mxCell>
        <mxCell id="fA92ugvTqF1jd87Zz7gU-11" value="Ride" style="swimlane;fontStyle=1;align=center;verticalAlign=top;childLayout=stackLayout;horizontal=1;startSize=26;horizontalStack=0;resizeParent=1;resizeParentMax=0;resizeLast=0;collapsible=1;marginBottom=0;whiteSpace=wrap;html=1;" vertex="1" parent="1">
          <mxGeometry x="-320" y="-200" width="510" height="320" as="geometry" />
        </mxCell>
        <mxCell id="fA92ugvTqF1jd87Zz7gU-27" value="" style="endArrow=open;html=1;endSize=12;startArrow=diamondThin;startSize=14;startFill=0;edgeStyle=orthogonalEdgeStyle;rounded=0;exitX=0.3;exitY=0.019;exitDx=0;exitDy=0;exitPerimeter=0;entryX=0.35;entryY=1.114;entryDx=0;entryDy=0;entryPerimeter=0;" edge="1" parent="fA92ugvTqF1jd87Zz7gU-11" target="fA92ugvTqF1jd87Zz7gU-10">
          <mxGeometry x="-1" y="-383" relative="1" as="geometry">
            <mxPoint x="163.00000000000045" y="4.079999999999927" as="sourcePoint" />
            <mxPoint x="-390" y="290" as="targetPoint" />
            <Array as="points">
              <mxPoint x="163" y="-42" />
              <mxPoint x="-70" y="-42" />
              <mxPoint x="-70" y="480" />
              <mxPoint x="-480" y="480" />
            </Array>
            <mxPoint x="-133" y="290" as="offset" />
          </mxGeometry>
        </mxCell>
        <mxCell id="fA92ugvTqF1jd87Zz7gU-28" value="0..n" style="edgeLabel;resizable=0;html=1;align=left;verticalAlign=top;" connectable="0" vertex="1" parent="fA92ugvTqF1jd87Zz7gU-27">
          <mxGeometry x="-1" relative="1" as="geometry">
            <mxPoint x="12" y="-25" as="offset" />
          </mxGeometry>
        </mxCell>
        <mxCell id="fA92ugvTqF1jd87Zz7gU-29" value="1" style="edgeLabel;resizable=0;html=1;align=right;verticalAlign=top;" connectable="0" vertex="1" parent="fA92ugvTqF1jd87Zz7gU-27">
          <mxGeometry x="1" relative="1" as="geometry" />
        </mxCell>
        <mxCell id="fA92ugvTqF1jd87Zz7gU-12" value="- rideID : int&lt;div&gt;- driverID : int&lt;/div&gt;&lt;div&gt;- origin : varchar&lt;/div&gt;&lt;div&gt;- destination : varchar&lt;/div&gt;&lt;div&gt;- departureTime : datetime&lt;/div&gt;&lt;div&gt;- availableSeats : int&lt;/div&gt;&lt;div&gt;- price : decimal&lt;/div&gt;&lt;div&gt;- status : enum&lt;/div&gt;&lt;div&gt;- crearedAt : timestamp&lt;/div&gt;" style="text;strokeColor=none;fillColor=none;align=left;verticalAlign=top;spacingLeft=4;spacingRight=4;overflow=hidden;rotatable=0;points=[[0,0.5],[1,0.5]];portConstraint=eastwest;whiteSpace=wrap;html=1;" vertex="1" parent="fA92ugvTqF1jd87Zz7gU-11">
          <mxGeometry y="26" width="510" height="144" as="geometry" />
        </mxCell>
        <mxCell id="fA92ugvTqF1jd87Zz7gU-13" value="" style="line;strokeWidth=1;fillColor=none;align=left;verticalAlign=middle;spacingTop=-1;spacingLeft=3;spacingRight=3;rotatable=0;labelPosition=right;points=[];portConstraint=eastwest;strokeColor=inherit;" vertex="1" parent="fA92ugvTqF1jd87Zz7gU-11">
          <mxGeometry y="170" width="510" height="8" as="geometry" />
        </mxCell>
        <mxCell id="fA92ugvTqF1jd87Zz7gU-14" value="+ createRide(driverID: int, origin: varchar, destination: varchar, departureTime: datetime, availableSeats: int, price: decimal ): void&lt;div&gt;+ updateRide(riderID: int, updatedData: Object) : void&lt;/div&gt;&lt;div&gt;+ cancelRide(rideID: int) : void&lt;/div&gt;&lt;div&gt;+ viewRideDetails(rideID: int) : Object&amp;nbsp;&lt;/div&gt;&lt;div&gt;+ markAsDone(riderID: int) : void&lt;/div&gt;" style="text;strokeColor=none;fillColor=none;align=left;verticalAlign=top;spacingLeft=4;spacingRight=4;overflow=hidden;rotatable=0;points=[[0,0.5],[1,0.5]];portConstraint=eastwest;whiteSpace=wrap;html=1;" vertex="1" parent="fA92ugvTqF1jd87Zz7gU-11">
          <mxGeometry y="178" width="510" height="142" as="geometry" />
        </mxCell>
        <mxCell id="fA92ugvTqF1jd87Zz7gU-15" value="Booking" style="swimlane;fontStyle=1;align=center;verticalAlign=top;childLayout=stackLayout;horizontal=1;startSize=26;horizontalStack=0;resizeParent=1;resizeParentMax=0;resizeLast=0;collapsible=1;marginBottom=0;whiteSpace=wrap;html=1;" vertex="1" parent="1">
          <mxGeometry x="-270" y="160" width="330" height="220" as="geometry" />
        </mxCell>
        <mxCell id="fA92ugvTqF1jd87Zz7gU-16" value="- bookingID: int&lt;div&gt;- rideID : int&lt;/div&gt;&lt;div&gt;- riderID : int&lt;/div&gt;&lt;div&gt;- seats : int&lt;/div&gt;&lt;div&gt;- status : enum&lt;/div&gt;" style="text;strokeColor=none;fillColor=none;align=left;verticalAlign=top;spacingLeft=4;spacingRight=4;overflow=hidden;rotatable=0;points=[[0,0.5],[1,0.5]];portConstraint=eastwest;whiteSpace=wrap;html=1;" vertex="1" parent="fA92ugvTqF1jd87Zz7gU-15">
          <mxGeometry y="26" width="330" height="84" as="geometry" />
        </mxCell>
        <mxCell id="fA92ugvTqF1jd87Zz7gU-17" value="" style="line;strokeWidth=1;fillColor=none;align=left;verticalAlign=middle;spacingTop=-1;spacingLeft=3;spacingRight=3;rotatable=0;labelPosition=right;points=[];portConstraint=eastwest;strokeColor=inherit;" vertex="1" parent="fA92ugvTqF1jd87Zz7gU-15">
          <mxGeometry y="110" width="330" height="8" as="geometry" />
        </mxCell>
        <mxCell id="fA92ugvTqF1jd87Zz7gU-18" value="+ createBooking(rideID: int, riderID: int, seats: int): Booking&lt;div&gt;+ cancelBooking(bookingID: int): void&lt;/div&gt;&lt;div&gt;+ viewBookingDetails(bookingID: int): Object&lt;/div&gt;&lt;div&gt;+ confirmBooking(bookingID: int): void&lt;/div&gt;" style="text;strokeColor=none;fillColor=none;align=left;verticalAlign=top;spacingLeft=4;spacingRight=4;overflow=hidden;rotatable=0;points=[[0,0.5],[1,0.5]];portConstraint=eastwest;whiteSpace=wrap;html=1;" vertex="1" parent="fA92ugvTqF1jd87Zz7gU-15">
          <mxGeometry y="118" width="330" height="102" as="geometry" />
        </mxCell>
        <mxCell id="fA92ugvTqF1jd87Zz7gU-19" value="Payment" style="swimlane;fontStyle=1;align=center;verticalAlign=top;childLayout=stackLayout;horizontal=1;startSize=26;horizontalStack=0;resizeParent=1;resizeParentMax=0;resizeLast=0;collapsible=1;marginBottom=0;whiteSpace=wrap;html=1;" vertex="1" parent="1">
          <mxGeometry x="-280" y="430" width="330" height="210" as="geometry" />
        </mxCell>
        <mxCell id="fA92ugvTqF1jd87Zz7gU-20" value="- paymentID : int&lt;div&gt;- bookingID : int&lt;/div&gt;&lt;div&gt;- amount : decimal&lt;/div&gt;&lt;div&gt;- method : enum&lt;/div&gt;&lt;div&gt;- crearedAt : timestamp&lt;/div&gt;" style="text;strokeColor=none;fillColor=none;align=left;verticalAlign=top;spacingLeft=4;spacingRight=4;overflow=hidden;rotatable=0;points=[[0,0.5],[1,0.5]];portConstraint=eastwest;whiteSpace=wrap;html=1;" vertex="1" parent="fA92ugvTqF1jd87Zz7gU-19">
          <mxGeometry y="26" width="330" height="84" as="geometry" />
        </mxCell>
        <mxCell id="fA92ugvTqF1jd87Zz7gU-21" value="" style="line;strokeWidth=1;fillColor=none;align=left;verticalAlign=middle;spacingTop=-1;spacingLeft=3;spacingRight=3;rotatable=0;labelPosition=right;points=[];portConstraint=eastwest;strokeColor=inherit;" vertex="1" parent="fA92ugvTqF1jd87Zz7gU-19">
          <mxGeometry y="110" width="330" height="8" as="geometry" />
        </mxCell>
        <mxCell id="fA92ugvTqF1jd87Zz7gU-22" value="+ processPayment(bookingID: int, method: enum): Boolean&lt;div&gt;+ refundPayment(paymentID: int): Boolean&lt;/div&gt;&lt;div&gt;+ getPaymentDetails(paymentID: int): Object&lt;/div&gt;" style="text;strokeColor=none;fillColor=none;align=left;verticalAlign=top;spacingLeft=4;spacingRight=4;overflow=hidden;rotatable=0;points=[[0,0.5],[1,0.5]];portConstraint=eastwest;whiteSpace=wrap;html=1;" vertex="1" parent="fA92ugvTqF1jd87Zz7gU-19">
          <mxGeometry y="118" width="330" height="92" as="geometry" />
        </mxCell>
        <mxCell id="fA92ugvTqF1jd87Zz7gU-23" value="Rating" style="swimlane;fontStyle=1;align=center;verticalAlign=top;childLayout=stackLayout;horizontal=1;startSize=26;horizontalStack=0;resizeParent=1;resizeParentMax=0;resizeLast=0;collapsible=1;marginBottom=0;whiteSpace=wrap;html=1;" vertex="1" parent="1">
          <mxGeometry x="290" y="-180" width="470" height="240" as="geometry" />
        </mxCell>
        <mxCell id="fA92ugvTqF1jd87Zz7gU-24" value="- ratingID : int&lt;div&gt;- rideID : int&lt;/div&gt;&lt;div&gt;- reviewerID : int&lt;/div&gt;&lt;div&gt;- revieweeID : int&lt;/div&gt;&lt;div&gt;- score : int&lt;/div&gt;&lt;div&gt;- ratingType : enum&lt;/div&gt;" style="text;strokeColor=none;fillColor=none;align=left;verticalAlign=top;spacingLeft=4;spacingRight=4;overflow=hidden;rotatable=0;points=[[0,0.5],[1,0.5]];portConstraint=eastwest;whiteSpace=wrap;html=1;" vertex="1" parent="fA92ugvTqF1jd87Zz7gU-23">
          <mxGeometry y="26" width="470" height="104" as="geometry" />
        </mxCell>
        <mxCell id="fA92ugvTqF1jd87Zz7gU-25" value="" style="line;strokeWidth=1;fillColor=none;align=left;verticalAlign=middle;spacingTop=-1;spacingLeft=3;spacingRight=3;rotatable=0;labelPosition=right;points=[];portConstraint=eastwest;strokeColor=inherit;" vertex="1" parent="fA92ugvTqF1jd87Zz7gU-23">
          <mxGeometry y="130" width="470" height="8" as="geometry" />
        </mxCell>
        <mxCell id="fA92ugvTqF1jd87Zz7gU-26" value="+ addRating(riderID: int, reviewerID: int, revieweeID: int, score: int, ratingType: enum): void&lt;div&gt;+ updateRating(ratingID: int, newScore: int): void&lt;/div&gt;&lt;div&gt;+ viewRating(userID): Array&amp;lt;Rating&amp;gt;&lt;/div&gt;" style="text;strokeColor=none;fillColor=none;align=left;verticalAlign=top;spacingLeft=4;spacingRight=4;overflow=hidden;rotatable=0;points=[[0,0.5],[1,0.5]];portConstraint=eastwest;whiteSpace=wrap;html=1;" vertex="1" parent="fA92ugvTqF1jd87Zz7gU-23">
          <mxGeometry y="138" width="470" height="102" as="geometry" />
        </mxCell>
        <mxCell id="fA92ugvTqF1jd87Zz7gU-33" style="edgeStyle=orthogonalEdgeStyle;rounded=0;orthogonalLoop=1;jettySize=auto;html=1;exitX=0.5;exitY=0;exitDx=0;exitDy=0;entryX=0.5;entryY=0;entryDx=0;entryDy=0;" edge="1" parent="1" source="fA92ugvTqF1jd87Zz7gU-15" target="fA92ugvTqF1jd87Zz7gU-15">
          <mxGeometry relative="1" as="geometry" />
        </mxCell>
        <mxCell id="fA92ugvTqF1jd87Zz7gU-35" value="" style="endArrow=none;html=1;rounded=0;align=center;verticalAlign=top;endFill=0;labelBackgroundColor=none;exitX=0.25;exitY=0;exitDx=0;exitDy=0;entryX=0.2;entryY=1.042;entryDx=0;entryDy=0;entryPerimeter=0;" edge="1" parent="1" source="fA92ugvTqF1jd87Zz7gU-19" target="fA92ugvTqF1jd87Zz7gU-18">
          <mxGeometry relative="1" as="geometry">
            <mxPoint x="50" y="440" as="sourcePoint" />
            <mxPoint x="210" y="440" as="targetPoint" />
            <Array as="points" />
          </mxGeometry>
        </mxCell>
        <mxCell id="fA92ugvTqF1jd87Zz7gU-36" value="1" style="resizable=0;html=1;align=left;verticalAlign=bottom;labelBackgroundColor=none;" connectable="0" vertex="1" parent="fA92ugvTqF1jd87Zz7gU-35">
          <mxGeometry x="-1" relative="1" as="geometry" />
        </mxCell>
        <mxCell id="fA92ugvTqF1jd87Zz7gU-38" value="1" style="resizable=0;html=1;align=right;verticalAlign=bottom;labelBackgroundColor=none;" connectable="0" vertex="1" parent="fA92ugvTqF1jd87Zz7gU-35">
          <mxGeometry x="1" relative="1" as="geometry">
            <mxPoint x="-2" y="17" as="offset" />
          </mxGeometry>
        </mxCell>
        <mxCell id="fA92ugvTqF1jd87Zz7gU-39" value="" style="endArrow=none;html=1;rounded=0;align=center;verticalAlign=top;endFill=0;labelBackgroundColor=none;exitX=0.25;exitY=0;exitDx=0;exitDy=0;entryX=0.256;entryY=1;entryDx=0;entryDy=0;entryPerimeter=0;" edge="1" parent="1" source="fA92ugvTqF1jd87Zz7gU-15" target="fA92ugvTqF1jd87Zz7gU-14">
          <mxGeometry relative="1" as="geometry">
            <mxPoint x="340" y="80" as="sourcePoint" />
            <mxPoint x="500" y="80" as="targetPoint" />
          </mxGeometry>
        </mxCell>
        <mxCell id="fA92ugvTqF1jd87Zz7gU-40" value="0..*" style="resizable=0;html=1;align=left;verticalAlign=bottom;labelBackgroundColor=none;" connectable="0" vertex="1" parent="fA92ugvTqF1jd87Zz7gU-39">
          <mxGeometry x="-1" relative="1" as="geometry">
            <mxPoint x="10" as="offset" />
          </mxGeometry>
        </mxCell>
        <mxCell id="fA92ugvTqF1jd87Zz7gU-42" value="1" style="resizable=0;html=1;align=right;verticalAlign=bottom;labelBackgroundColor=none;" connectable="0" vertex="1" parent="fA92ugvTqF1jd87Zz7gU-39">
          <mxGeometry x="1" relative="1" as="geometry">
            <mxPoint x="-11" y="20" as="offset" />
          </mxGeometry>
        </mxCell>
      </root>
    </mxGraphModel>
  </diagram>
</mxfile>
